<svg xmlns="http://www.w3.org/2000/svg" viewBox="0 0 960 520" role="img" aria-labelledby="260925-ch03-kernel-onion-title 260925-ch03-kernel-onion-desc"><title id="260925-ch03-kernel-onion-title">内核循环与会话外壳</title><desc id="260925-ch03-kernel-onion-desc">默认 SDK 由这条链路组装；Harness 是另一套运行基础设施。</desc><defs><marker id="260925-ch03-kernel-onion-arrow" markerWidth="7" markerHeight="7" refX="6" refY="3.5" orient="auto"><path d="M0 0L7 3.5L0 7" fill="#8e7767"/></marker></defs><style>text{font-family:Geist,"Microsoft YaHei",sans-serif;fill:#1c1917}.title{font-size:29px;font-weight:650}.eyebrow{font:13px Geist,monospace;letter-spacing:2px;fill:#8a7464}.node{font-size:19px;font-weight:600}.body{font-size:18px}.small{font-size:17px;fill:#57534e}.accent{font-size:23px;fill:#b5523a}.source{font:13px Geist,monospace;fill:#8a7464}.edge{fill:none;stroke:#8e7767;stroke-width:1.8;marker-end:url(#260925-ch03-kernel-onion-arrow)}</style><rect width="960" height="520" fill="#faf7f2"/><text x="42" y="48" class="title">内核循环与会话外壳</text><text x="42" y="78" class="eyebrow">PI SOURCE DIVE  /  v0.87.1</text><rect x="42" y="108" width="290" height="82" rx="9" fill="#f0e8df" stroke="#d6cec3"/><rect x="350" y="108" width="568" height="82" rx="9" fill="#fffdf9" stroke="#d6cec3"/><text x="58" y="155" class="node">AgentSession</text><text x="367" y="155" class="body">会话投影 · 资源 · 扩展 · 自动恢复 · settled</text><path d="M332 149H346" class="edge"/><path d="M185 190V205" class="edge"/><rect x="42" y="208" width="290" height="82" rx="9" fill="#f0e8df" stroke="#d6cec3"/><rect x="350" y="208" width="568" height="82" rx="9" fill="#fffdf9" stroke="#d6cec3"/><text x="58" y="255" class="node">Agent</text><text x="367" y="255" class="body">可观察状态 · 队列 · 等待事件监听器</text><path d="M332 249H346" class="edge"/><path d="M185 290V305" class="edge"/><rect x="42" y="308" width="290" height="82" rx="9" fill="#f0e8df" stroke="#d6cec3"/><rect x="350" y="308" width="568" height="82" rx="9" fill="#fffdf9" stroke="#d6cec3"/><text x="58" y="355" class="node">runLoop</text><text x="367" y="340" class="body">prepareRequest → 模型 → 工具 → finishTurn</text><text x="367" y="368" class="body">继续时：prepareNextTurn → 下一轮</text><path d="M332 349H346" class="edge"/><text x="42" y="440" class="small">默认 SDK 由这条链路组装；Harness 是另一套运行基础设施。</text><a href="https://github.com/earendil-works/pi/blob/f07218c4d4bbc12bef056a7058c3dd49dfe41abe/packages/coding-agent/src/core/sdk.ts" target="_blank"><text x="42" y="498" class="source">packages/coding-agent/src/core/sdk.ts</text></a></svg>
